HIERARCHY
ROOT Hips
{
  OFFSET 3.13124 94.3669 -3.18751
  CHANNELS  6 Xposition Yposition Zposition Zrotation Xrotation Yrotation
  JOINT LeftUpLeg
  {
    OFFSET 8.64259 1.95398 -2.38835
    CHANNELS 3 Zrotation Xrotation Yrotation
    JOINT LeftLeg
    {
      OFFSET 43.7702 0 0
      CHANNELS 3 Zrotation Xrotation Yrotation
      JOINT LeftFoot
      {
        OFFSET 40.6238 0 0
        CHANNELS 3 Zrotation Xrotation Yrotation
        JOINT LeftToeBase
        {
          OFFSET 12.7242 0 0
          CHANNELS 3 Zrotation Xrotation Yrotation
          End Site
          {
            OFFSET 0 0 0
          }
        }
      }
    }
  }
  JOINT RightUpLeg
  {
    OFFSET -8.2249 1.95398 -2.59336
    CHANNELS 3 Zrotation Xrotation Yrotation
    JOINT RightLeg
    {
      OFFSET 43.5653 0 0
      CHANNELS 3 Zrotation Xrotation Yrotation
      JOINT RightFoot
      {
        OFFSET 40.6238 0 0
        CHANNELS 3 Zrotation Xrotation Yrotation
        JOINT RightToeBase
        {
          OFFSET 12.7242 0 0
          CHANNELS 3 Zrotation Xrotation Yrotation
          End Site
          {
            OFFSET 0 0 0
          }
        }
      }
    }
  }
  JOINT Spine
  {
    OFFSET 0.165834 0.87714 6.61349
    CHANNELS 3 Zrotation Xrotation Yrotation
    JOINT Spine1
    {
      OFFSET 7.38962 1.71661e-005 0
      CHANNELS 3 Zrotation Xrotation Yrotation
      JOINT Spine2
      {
        OFFSET 11.9445 1.14441e-005 0
        CHANNELS 3 Zrotation Xrotation Yrotation
        JOINT Spine3
        {
          OFFSET 14.7254 4.19617e-005 0
          CHANNELS 3 Zrotation Xrotation Yrotation
          JOINT Spine4
          {
            OFFSET 10.9679 0 0
            CHANNELS 3 Zrotation Xrotation Yrotation
            JOINT RightShoulder
            {
              OFFSET 2.46616 -1.6653 3.69651
              CHANNELS 3 Zrotation Xrotation Yrotation
              JOINT RightArm
              {
                OFFSET 13.0012 0 0
                CHANNELS 3 Zrotation Xrotation Yrotation
                JOINT RightForeArm
                {
                  OFFSET 28.7848 1.52588e-005 0
                  CHANNELS 3 Zrotation Xrotation Yrotation
                  JOINT RightHand
                  {
                    OFFSET 26.5688 1.52588e-005 0
                    CHANNELS 3 Zrotation Xrotation Yrotation
                    End Site
                    {
                      OFFSET 0 0 0
                    }
                  }
                }
              }
            }
            JOINT LeftShoulder
            {
              OFFSET 2.38034 -1.29275 -3.75231
              CHANNELS 3 Zrotation Xrotation Yrotation
              JOINT LeftArm
              {
                OFFSET 16.3182 6.10352e-005 0
                CHANNELS 3 Zrotation Xrotation Yrotation
                JOINT LeftForeArm
                {
                  OFFSET 27.0901 0 0
                  CHANNELS 3 Zrotation Xrotation Yrotation
                  JOINT LeftHand
                  {
                    OFFSET 24.5451 1.52588e-005 0
                    CHANNELS 3 Zrotation Xrotation Yrotation
                    End Site
                    {
                      OFFSET 0 0 0
                    }
                  }
                }
              }
            }
            JOINT Neck
            {
              OFFSET 5.0226 -0.0266342 0
              CHANNELS 3 Zrotation Xrotation Yrotation
              JOINT Head
              {
                OFFSET 6.69363 2.86102e-005 0
                CHANNELS 3 Zrotation Xrotation Yrotation
                End Site
                {
                  OFFSET 0 0 0
                }
              }
            }
          }
        }
      }
    }
  }
}
MOTION
Frames:	9
Frame Time:	0.0333333
118.244 92.2475 -18.045 86.116 -69.4031 86.9381 -173.504 8.74031 89.1466 -20.5869 10.2374 2.00446 71.1034 6.54585 3.32978 28.7808 2.32591e-006 2.07808e-006 -177.799 37.1066 81.2933 -57.7675 20.1135 0.667507 35.9146 -2.02484 -1.05996 28.7808 1.08777e-005 1.81319e-005 0.0184055 7.20173 -90.5954 12.4691 -0.206145 -1.69865 0.797112 -0.280722 -1.68794 -21.7291 0.313813 -1.6821 -1.71646 0.313794 -1.68211 94.7453 -54.9505 -92.833 14.5259 22.0733 13.921 21.3646 25.5596 -49.26 4.18364 0.749688 13.2827 -91.0671 -54.3418 78.0971 -11.0909 -19.2642 29.8573 -9.6592 -15.0122 -41.9624 3.77524 1.79153 29.5048 13.1577 -22.531 -3.94761 12.0748 -21.5744 -7.06495 
118.834 92.1663 -18.5819 86.8282 -71.8397 86.9374 -173.248 8.06031 88.2671 -20.1797 8.09359 1.09622 70.9951 7.42961 3.73936 28.7808 2.32591e-006 2.07808e-006 -177.966 37.9991 82.6235 -59.6755 22.7201 0.80637 35.3164 -0.287803 0.609589 28.7808 1.08777e-005 1.81319e-005 0.0673297 7.25227 -90.3284 12.3718 0.00713143 -1.64197 0.699792 -0.0651418 -1.64064 -21.8277 0.500162 -1.56402 -1.81501 0.50015 -1.56404 94.9813 -54.8776 -92.4987 15.222 21.393 16.4627 21.073 26.1514 -48.2744 1.23643 0.25358 12.0862 -90.7948 -54.711 78.5672 -9.75649 -19.9455 31.8439 -8.8745 -12.6697 -44.9674 2.6843 1.38297 28.0993 12.7354 -22.2025 -2.64758 11.9843 -21.6605 -7.69782 
119.325 92.1368 -19.0787 86.0936 -74.1673 85.9764 -172.913 7.93125 87.8409 -19.8161 6.33815 0.256376 70.5598 8.4311 4.23599 28.7808 2.32591e-006 2.07808e-006 -178.279 38.5747 83.8772 -60.3307 23.619 0.849968 33.2988 -0.884417 0.0790546 28.7808 1.08777e-005 1.81319e-005 0.100894 7.24068 -90.1549 12.3962 0.150843 -1.62342 0.724237 0.0791393 -1.62944 -21.8037 0.632554 -1.50215 -1.791 0.632522 -1.50218 94.8567 -54.9182 -92.6753 16.3117 20.5429 18.8553 20.3433 26.7526 -46.6962 -0.920438 -0.0692604 9.88893 -90.7245 -55.9893 78.9282 -7.99381 -20.9464 30.689 -10.0257 -13.1172 -46.898 4.6773 2.06984 29.6692 12.3786 -21.5048 -1.71407 11.7043 -21.2061 -7.75054 
119.797 91.9861 -19.4798 84.1148 -75.8548 83.6655 -172.825 8.01621 87.1446 -19.2243 4.07366 -0.428232 70.7285 9.13156 4.56455 28.7808 2.32591e-006 2.07808e-006 -178.293 39.1826 84.1505 -60.8542 25.5254 0.975886 30.6121 -2.3033 -1.34186 28.7808 1.08777e-005 1.81319e-005 0.0367385 7.18773 -90.0113 12.5028 0.100942 -1.53556 0.830956 0.0332613 -1.53851 -21.6975 0.55774 -1.43426 -1.68483 0.55771 -1.43429 94.6223 -55.1257 -92.9898 17.3478 19.869 20.2208 19.4054 27.0272 -45.1383 -2.81491 -0.351468 11.7022 -90.8677 -57.4076 79.0238 -6.4189 -21.8535 28.3062 -11.0623 -14.184 -46.9876 7.02245 2.85648 30.408 12.3078 -20.7103 -0.605707 10.8776 -20.6982 -8.09632 
120.223 91.8309 -19.7826 84.1358 -77.4944 82.9167 -173.131 6.91522 86.1753 -17.5724 3.19213 -0.579534 71.4345 8.84387 4.37441 28.7808 2.32591e-006 2.07808e-006 -178.238 38.087 83.8553 -59.9647 28.9613 1.26561 29.4269 -2.84429 -1.92778 28.7808 1.08777e-005 1.81319e-005 -0.0435581 7.18153 -89.9119 12.5123 -0.0238315 -1.31584 0.840686 -0.0817446 -1.31353 -21.6895 0.372693 -1.26219 -1.67688 0.372678 -1.26221 94.3984 -55.3498 -93.2852 18.5861 19.2551 21.1828 19.5147 27.5336 -44.8063 -3.68545 -0.560795 14.6209 -91.2074 -58.1475 78.6933 -5.87674 -22.0856 24.9098 -12.0652 -16.7721 -44.2269 9.82445 3.59472 29.278 11.8721 -19.6446 0.434356 10.348 -19.9183 -8.29962 
120.544 91.6186 -19.985 85.3826 -79.3759 83.1616 -173.461 5.43065 85.1342 -15.8215 3.68708 -0.393308 71.4111 9.8944 4.88679 28.7808 2.32591e-006 2.07808e-006 -178.315 36.3217 83.5894 -58.1643 29.6419 1.3578 31.8945 -3.87286 -2.9505 28.7808 1.08777e-005 1.81319e-005 -0.136388 7.19737 -89.7828 12.4782 -0.167394 -0.993851 0.80685 -0.210876 -0.985518 -21.7251 0.139241 -0.998145 -1.71241 0.139237 -0.998142 94.0721 -55.6196 -93.7203 20.56 18.358 21.1262 17.2163 25.6321 -43.3489 -4.38328 -0.783702 17.8044 -91.6436 -58.5984 78.1953 -5.45271 -21.7989 20.1889 -11.9136 -21.3428 -37.137 11.8773 3.77273 25.3282 10.9861 -18.6374 0.816724 10.1931 -18.9956 -7.80815 
120.79 91.3223 -20.1493 91.5887 -81.672 87.6185 -174.028 3.89276 83.394 -15.3278 0.74091 -0.702391 71.5822 9.51472 4.68465 28.7808 2.32591e-006 2.07808e-006 -178.251 34.0667 82.7011 -56.4234 31.4585 1.54131 36.7476 -5.86146 -4.688 28.7808 1.08777e-005 1.81319e-005 -0.257988 7.27518 -89.4816 12.3199 -0.302572 -0.492735 0.648918 -0.325371 -0.47879 -21.8856 -0.143905 -0.561963 -1.87298 -0.143908 -0.561979 93.48 -55.8135 -94.547 22.3748 17.6032 21.1523 15.9641 23.5205 -43.6745 -2.88733 -0.551289 20.9155 -92.3951 -59.0888 77.2805 -5.13034 -20.2038 9.68988 -5.40654 -32.9734 -15.7564 10.046 1.88821 13.5738 9.86744 -17.3155 1.60893 9.75282 -17.9348 -8.27997 
120.843 90.9124 -20.362 104.743 -84.9383 98.6828 -174.91 2.83765 81.2024 -15.7073 -3.37928 -0.884657 72.0785 8.78909 4.30141 28.7808 2.32591e-006 2.07808e-006 -178.141 32.3159 81.6796 -55.6197 32.3419 1.62495 44.3591 -7.51005 -5.6194 28.7808 1.08777e-005 1.81319e-005 -0.326293 7.38166 -89.0457 12.105 -0.285303 0.16732 0.434084 -0.277663 0.179648 -22.1013 -0.322007 0.074019 -2.08864 -0.322003 0.0740038 92.7976 -56.3331 -95.4466 23.9592 16.9386 21.1186 14.4475 20.1613 -45.2974 1.21394 0.429858 22.83 -93.4827 -59.4319 75.8923 -5.06466 -20.8962 5.54383 -8.08639 -39.713 -17.7433 14.2105 2.48142 13.1108 9.14611 -15.762 1.72331 9.28247 -16.4621 -8.52332 
120.763 90.7884 -20.7491 165.661 -88.1825 158.271 -175.994 3.08369 79.1696 -16.8379 -9.43136 -0.38337 70.4009 7.69123 3.87348 28.7808 2.32591e-006 2.07808e-006 -178.193 31.1452 81.2274 -53.8434 30.8181 1.51172 49.6796 -8.53711 -5.98922 28.7808 1.08777e-005 1.81319e-005 -0.389465 7.45619 -88.6086 11.9471 -0.242981 0.672702 0.275978 -0.213249 0.683737 -22.2583 -0.440291 0.565944 -2.24561 -0.440299 0.565946 91.9869 -56.6368 -96.5542 25.1945 16.3451 20.29 12.2764 16.0006 -47.661 7.17484 2.07178 25.0045 -94.0148 -59.6059 75.2189 -4.40835 -22.0679 3.66001 -15.2638 -44.5735 -25.9669 19.6378 3.53107 14.0912 9.40927 -13.769 1.34793 8.20768 -14.374 -8.36465 
